<svg xmlns="http://www.w3.org/2000/svg" viewBox="0 0 32 32" id="FastDelivery"><path fill="#595bd4" d="m31.46 13.93-3.65-3.46A2.38 2.38 0 0 0 26 9.68h-4.4V6.35a1.48 1.48 0 0 0-1.48-1.48H1.48A1.48 1.48 0 0 0 0 6.35v13.93a.49.49 0 0 0 .48.48H1V23a1.24 1.24 0 0 0 1.23 1.24h2.21a3.67 3.67 0 0 0 7.17 0h9.78a3.67 3.67 0 0 0 7.17 0h2.21A1.24 1.24 0 0 0 32 23v-7.73a1.93 1.93 0 0 0-.54-1.34ZM5.25 21.07a1.34 1.34 0 0 0-.11.14 1.34 1.34 0 0 0-.11.14l-.1.15-.09.15a1.09 1.09 0 0 0-.08.15c0 .06-.06.11-.08.16a1.22 1.22 0 0 0-.07.17l-.06.17a.84.84 0 0 0 0 .17 1.21 1.21 0 0 0 0 .18v.17a32.19 32.19 0 0 1 0 .37v.1H2.23A.27.27 0 0 1 2 23v-2.24h3.55l-.06.06-.12.12Zm5.46 2.66a2.7 2.7 0 0 1-5.37 0 2.46 2.46 0 0 1 0-.26 2.7 2.7 0 1 1 5.4 0 2.35 2.35 0 0 1-.03.26Zm2.8-.44h-1.82v-.1a1.1 1.1 0 0 0 0-.18 1.08 1.08 0 0 0 0-.19v-.35a.84.84 0 0 0-.05-.17l-.06-.17c0-.06 0-.11-.07-.17l-.08-.16-.08-.15-.09-.15-.1-.15-.11-.14a1.34 1.34 0 0 0-.11-.14l-.12-.13-.12-.12-.06-.06h3Zm5 0h-4v-2.53h4ZM14 19.79H1V6.35a.51.51 0 0 1 .51-.51h18.64a.51.51 0 0 1 .51.51v13.44H14Zm8.21 1.28a1.34 1.34 0 0 0-.11.14 1.34 1.34 0 0 0-.11.14l-.1.15-.09.15a1.09 1.09 0 0 0-.08.15c0 .06-.06.11-.08.16a1.22 1.22 0 0 0-.07.17l-.06.17a.84.84 0 0 0-.05.17 1.21 1.21 0 0 0-.05.18 1.36 1.36 0 0 1 0 .17 32.19 32.19 0 0 1 0 .37v.1h-1.92v-2.53h3l-.06.06-.12.12Zm5.46 2.66a2.7 2.7 0 0 1-5.37 0 2.46 2.46 0 0 1 0-.26 2.71 2.71 0 0 1 5.41 0 2.46 2.46 0 0 1-.05.26ZM31 23a.27.27 0 0 1-.26.27h-2.1v-.1a1.1 1.1 0 0 0 0-.18 1.08 1.08 0 0 0 0-.19v-.17a1.21 1.21 0 0 0-.05-.18.84.84 0 0 0-.05-.17l-.06-.17c0-.06-.05-.11-.07-.17s-.05-.1-.08-.16a1.09 1.09 0 0 0-.08-.15l-.09-.15-.1-.15-.11-.14a1.34 1.34 0 0 0-.11-.14l-.12-.13-.12-.12-.06-.06H31Zm0-3.23h-9.4v-9.12h2.16v6A1.23 1.23 0 0 0 25 17.84h6Zm0-2.92h-6a.26.26 0 0 1-.26-.26v-6H26a1.49 1.49 0 0 1 1.09.49l3.65 3.47a1 1 0 0 1 .26.66Z" class="color231f20 svgShape"></path><path fill="#595bd4" d="M8 21.61a1.86 1.86 0 1 0 1.86 1.86A1.85 1.85 0 0 0 8 21.61zm0 2.74a.89.89 0 0 1 0-1.77.89.89 0 1 1 0 1.77zm17-2.74a1.86 1.86 0 1 0 1.85 1.86A1.86 1.86 0 0 0 25 21.61zm0 2.74a.89.89 0 1 1 .88-.88.88.88 0 0 1-.88.88z" class="color231f20 svgShape"></path></svg>